<svg xmlns="http://www.w3.org/2000/svg" viewBox="0 0 174 194.933">
    <defs>
        <style>
            .cls-1{fill:#fba100}.cls-2{fill:none}.cls-3,.cls-4{stroke:#6c648b;stroke-width:4px}.cls-3{stroke-miterlimit:10;fill:#fff}.cls-4{fill:#b6a19e}
        </style>
    </defs>
    <g id="Group_5" data-name="Group 5" transform="translate(-15.291 -16.377)">
        <g id="XMLID_2_" transform="translate(28.291 37.593)">
            <g id="Group_6" data-name="Group 6">
                <path id="Path_43" d="M128.052 111a1.974 1.974 0 0 0-2.777.452 61.774 61.774 0 0 1-13.756 13.756 2 2 0 0 0-.42 2.777 2.034 2.034 0 0 0 1.615.807 1.935 1.935 0 0 0 1.162-.388 66.317 66.317 0 0 0 14.628-14.66 2 2 0 0 0-.452-2.744zm5.974-55.574a2.006 2.006 0 0 0 1.905 1.356 2.028 2.028 0 0 0 .614-.1 1.987 1.987 0 0 0 1.259-2.519 65.556 65.556 0 0 0-9.494-18.406 1.972 1.972 0 0 0-2.777-.42 2 2 0 0 0-.42 2.777 62.446 62.446 0 0 1 8.913 17.314zm5.1 17.373a2.07 2.07 0 0 0-1.97 2.1 61.32 61.32 0 0 1-3.035 19.214 2 2 0 1 0 3.81 1.227 66.322 66.322 0 0 0 3.231-20.44v-.258a1.967 1.967 0 0 0-2.034-1.842zM21.683 38.895a2.007 2.007 0 0 0 1.162.388 2.034 2.034 0 0 0 1.615-.807 62.462 62.462 0 0 1 13.724-13.79 1.986 1.986 0 1 0-2.357-3.2 66.169 66.169 0 0 0-14.6 14.66 2 2 0 0 0 .456 2.749zM92.66 13.158a1.97 1.97 0 0 0 1.292 2.486 62.425 62.425 0 0 1 17.373 8.783 1.935 1.935 0 0 0 1.162.387 2.034 2.034 0 0 0 1.615-.807 1.974 1.974 0 0 0-.452-2.777 66.4 66.4 0 0 0-18.471-9.365 2 2 0 0 0-2.519 1.293zm-39.654 1.324a1.937 1.937 0 0 0 1.873 1.356 2.028 2.028 0 0 0 .614-.1 61.349 61.349 0 0 1 19.214-3.068 1.986 1.986 0 1 0-.033-3.97A66.383 66.383 0 0 0 54.233 12a1.961 1.961 0 0 0-1.227 2.482zm4 122.127a1.945 1.945 0 0 0-1.292-2.486 61.9 61.9 0 0 1-17.341-8.816 2 2 0 0 0-2.777.42 1.974 1.974 0 0 0 .452 2.777 65.792 65.792 0 0 0 18.439 9.365 2.027 2.027 0 0 0 .614.1 1.948 1.948 0 0 0 1.909-1.36zM15.742 94.243a1.991 1.991 0 0 0-3.778 1.257 66.854 66.854 0 0 0 9.429 18.439 1.986 1.986 0 0 0 2.777.42 2 2 0 0 0 .42-2.777 63.318 63.318 0 0 1-8.848-17.339zm-5.07-17.276a2.069 2.069 0 0 0 2-2.067 61.78 61.78 0 0 1 3-19.117 1.981 1.981 0 1 0-3.772-1.194A66.418 66.418 0 0 0 8.734 74.9v.129a1.9 1.9 0 0 0 1.938 1.938zm64.293 60.159a1.978 1.978 0 0 0-1.97 1.97 2 2 0 0 0 1.97 1.97 69.375 69.375 0 0 0 10.366-.807 67.308 67.308 0 0 0 10.075-2.422 1.974 1.974 0 0 0 1.259-2.519 2 2 0 0 0-2.486-1.292 60.459 60.459 0 0 1-19.214 3.1zM74.9.5A74.4 74.4 0 1 1 .5 74.9 74.5 74.5 0 0 1 74.9.5zm53.281 74.4A53.281 53.281 0 1 0 74.9 128.181 53.292 53.292 0 0 0 128.181 74.9z" class="cls-1" data-name="Path 43" transform="translate(-.5 -.5)"/>
            </g>
            <g id="Group_7" data-name="Group 7">
                <circle id="Ellipse_6" cx="74.4" cy="74.4" r="74.4" class="cls-2" data-name="Ellipse 6"/>
                <path id="Path_44" d="M172.462 119.181A53.281 53.281 0 1 1 119.181 65.9a53.292 53.292 0 0 1 53.281 53.281z" class="cls-2" data-name="Path 44" transform="translate(-44.781 -44.781)"/>
            </g>
        </g>
        <path id="Path_39" d="M45.71 69.356a59.963 59.963 0 0 0 13.9 1.539c11.418 0 23.456-2.672 33.309-6.208 13.415-4.832 26.291-7.5 22.971-15.737-.729-1.782-3.752-2.375-7.774-2.375-8.125 0-20.109 2.483-24.1 2.483-2 0-2-.621 1.431-2.456 6.937-3.7 16.735-5.776 27.37-5.776 13.064 0 27.4 3.158 39.085 10.311 6.4 3.914 11.418 5.4 15.17 5.4 8.638 0 10.365-7.909 6.019-11.877-9.042-8.314-42.378-32.5-61.6-36.629a40.211 40.211 0 0 0-8.368-.729C80.5 7.3 40.339 18.637 30.46 18.637c-5.372 0-14.765-2.564-23.16-5.237v46.319c4.211 1.188 18.6 4.8 38.41 9.636zm0 0" class="cls-3" data-name="Path 39" transform="translate(9.991 11.293)"/>
        <path id="Path_40" d="M81.129 539.34c22.62 0 62.515-11.337 72.394-11.337 5.372 0 14.495 2.564 22.89 5.237v-46.319c-4.211-1.188-18.3-4.8-38.113-9.609a58.811 58.811 0 0 0-13.766-1.512c-11.418 0-23.4 2.672-33.228 6.208-13.415 4.832-26.264 7.5-22.944 15.737.7 1.781 3.779 2.375 7.774 2.375 8.125 0 20.136-2.483 24.131-2.483 2 0 2 .621-1.431 2.456-6.937 3.7-16.735 5.776-27.37 5.776-13.064 0-27.4-3.158-39.085-10.311-6.4-3.914-11.418-5.4-15.17-5.4-8.638 0-10.365 7.909-6.019 11.877 9.042 8.26 42.378 32.418 61.6 36.548a38.216 38.216 0 0 0 8.341.756zm0 0" class="cls-3" data-name="Path 40" transform="translate(8.825 -330.707)"/>
        <path id="Path_41" d="M17.291 25.026l20 6.219v53.781l-20-5.854z" class="cls-4" data-name="Path 41" transform="translate(0 -5.933)"/>
        <path id="Path_42" d="M17.291 25.026l20 6.219v53.781l-20-5.854z" class="cls-4" data-name="Path 42" transform="rotate(180 102.29 116.81)"/>
    </g>
</svg>
