<svg xmlns="http://www.w3.org/2000/svg" viewBox="0 0 200 174.146">
    <defs>
        <style>
            .cls-1{fill:#e9e9e9}.cls-2{fill:#fba100}.cls-3{fill:#6c648b}
        </style>
    </defs>
    <g id="phone" transform="translate(-.2 -.299)">
        <path id="Path_34" d="M88.542 118.4v56.4H16a2.639 2.639 0 0 1-2.7-2.578v-51.24A2.638 2.638 0 0 1 16 118.4z" class="cls-1" data-name="Path 34" transform="translate(-7.74 -71.977)"/>
        <path id="Path_35" d="M111.409 275.9l-24.753 16.755c-1.023.312-3.682.234-4.051-.547-.941-2.108-4.541-11.17-6.505-16.208z" class="cls-2" data-name="Path 35" transform="translate(-44.846 -167.965)"/>
        <path id="Path_36" d="M491.3 15.878v133.294a2.7 2.7 0 0 1-5.4 0V15.878a2.7 2.7 0 0 1 5.4 0z" class="cls-2" data-name="Path 36" transform="translate(-296.501 -7.923)"/>
        <path id="Path_37" d="M200.2 7.954v133.295a8.069 8.069 0 0 1-16.12 0c0-8.787-11.743-18.668-31.382-26.4-21.198-8.359-38.551-13.049-66.536-13.319v3.827l-2.7 2.578h-7.61c-.859.586-2.332 1.562-4.132 2.812l10.106 3.32.818 4.413-4.787 3.671.859 1.094-.164 3.32-2.66 2.735a32.242 32.242 0 0 1 3.764 4.3c2.455 3.4 3.969 9.334 4.951 13.24.164.7.327 1.328.45 1.8.164.508 1.514 1.133 2.578 1.6 1.677.742 3.6 1.6 4.664 3.32 2.455 3.905-2.087 8.983-6.915 13.825-4.705 4.687-9.042 7.069-12.929 7.069a10.087 10.087 0 0 1-3.069-.508c-3.969-1.406-4.542-4.413-4.951-6.639a8.686 8.686 0 0 0-1.6-4.14 128.25 128.25 0 0 1-12.888-19.84 148.438 148.438 0 0 0-8.019-13.513 12.392 12.392 0 0 1-4.91-.312 6.311 6.311 0 0 1-4.255-3.476c-1.1-2.539-5.605-13.943-7.283-18.2H8.26a7.873 7.873 0 0 1-8.06-7.702V49a7.873 7.873 0 0 1 8.06-7.694h75.2l2.7 2.578V49c59.74-.663 97.92-22.69 97.92-41.007a8.07 8.07 0 0 1 16.12-.039zm-5.4 133.333V7.954a2.7 2.7 0 0 0-5.4 0v133.295a2.665 2.665 0 0 0 2.7 2.578 2.632 2.632 0 0 0 2.7-2.539zm-10.72-12.732V20.8c-15.1 18.043-50.457 32.767-97.918 33.314v42.339c48.197.468 82.938 14.489 97.918 32.103zm-96.445 27.612a8.729 8.729 0 0 0-2.25-1.211c-2-.9-4.705-2.109-5.523-4.96-.123-.508-.327-1.172-.491-1.914-.859-3.359-2.25-8.944-4.173-11.56a25.811 25.811 0 0 0-4.787-5.038l-.327-3.788 2.987-3.046-7.733-9.607c-6.792 4.608-14.77 10-18.534 12.537a150.008 150.008 0 0 1 8.019 13.591 123.519 123.519 0 0 0 12.315 18.942 13.035 13.035 0 0 1 2.619 6.366c.409 2.109.532 2.382 1.555 2.734 2.332.82 5.974-1.054 10.229-5.272 5.153-5.196 6.012-7.11 6.094-7.774zM80.8 102.819v-56.4H8.26A2.639 2.639 0 0 0 5.56 49v51.28a2.638 2.638 0 0 0 2.7 2.578H80.8zm-6.219 15.31l.9-.7-2-.664zm-32.773 6.6l24.753-16.755H31.254c2 5 5.605 14.06 6.505 16.208.369.781 3.028.859 4.051.546z" class="cls-3" data-name="Path 37"/>
    </g>
</svg>
