<svg xmlns="http://www.w3.org/2000/svg" viewBox="0 0 200 200">
    <defs>
        <style>
            .cls-1{fill:#b6a19e}.cls-2{fill:#fba100}.cls-3{fill:#6c648b}
        </style>
    </defs>
    <g id="Plan" transform="translate(0 -1.672)">
        <path id="Path_28" d="M397.692 518.244a1.3 1.3 0 0 0-1.843 0l-4.171 4.171a1.3 1.3 0 0 0 0 1.843l5.6 5.6-5.6 5.6a1.3 1.3 0 0 0 0 1.843l4.171 4.171a1.3 1.3 0 0 0 1.843 0l5.6-5.6 5.6 5.6a1.3 1.3 0 0 0 1.843 0l4.171-4.171a1.3 1.3 0 0 0 0-1.843l-5.6-5.6 5.6-5.6a1.3 1.3 0 0 0 0-1.843l-4.171-4.171a1.3 1.3 0 0 0-1.843 0l-5.6 5.6z" class="cls-1" data-name="Path 28" transform="translate(-305.046 -400.85)"/>
        <path id="Path_29" d="M585.452 696.309l5.6 5.6-5.6 5.6a1.3 1.3 0 0 0 0 1.843l4.171 4.171a1.3 1.3 0 0 0 1.843 0l5.6-5.6 5.6 5.6a1.3 1.3 0 0 0 1.844 0l4.171-4.171a1.3 1.3 0 0 0 0-1.843l-5.6-5.6 5.6-5.6a1.3 1.3 0 0 0 0-1.843l-4.171-4.171a1.3 1.3 0 0 0-1.844 0l-5.6 5.6-5.6-5.6a1.3 1.3 0 0 0-1.843 0l-4.171 4.171a1.3 1.3 0 0 0 0 1.843z" class="cls-1" data-name="Path 29" transform="translate(-449.107 -538.977)"/>
        <path id="Path_30" d="M218.337 593.1l4.171 4.171a1.3 1.3 0 0 0 1.843 0l5.6-5.6 5.6 5.6a1.3 1.3 0 0 0 1.843 0l4.171-4.171a1.3 1.3 0 0 0 0-1.843l-5.6-5.6 5.6-5.6a1.3 1.3 0 0 0 0-1.843l-4.165-4.184a1.3 1.3 0 0 0-1.843 0l-5.6 5.6-5.6-5.6a1.3 1.3 0 0 0-1.843 0l-4.171 4.171a1.3 1.3 0 0 0 0 1.843l5.6 5.6-5.6 5.6a1.3 1.3 0 0 0-.006 1.856z" class="cls-1" data-name="Path 30" transform="translate(-174.913 -437.34)"/>
        <ellipse id="Ellipse_4" cx="12" cy="12" class="cls-2" data-name="Ellipse 4" rx="12" ry="12" transform="translate(78.524 67.997)"/>
        <ellipse id="Ellipse_5" cx="12" cy="12" class="cls-2" data-name="Ellipse 5" rx="12" ry="12" transform="translate(78.524 166.433)"/>
        <path id="Path_31" d="M486.68 398.642c.2 1.118 1.062 1.433 1.931.7l3.072-2.577c5.259 7.83 9.231 13.313 10.821 21.676s.236 13.893-2.831 20.681c-5.375 11.9-17.228 21.11-17.748 21.527q-.109.082-.212.176a3.08 3.08 0 0 0 2.057 5.37 3.143 3.143 0 0 0 1.947-.68c.426-.336 13.506-10.368 19.606-23.918 3.482-7.734 4.933-15.125 3.327-23.665s-6.137-16.266-12.218-25.149l3.165-2.654a1.085 1.085 0 0 0-.356-2.025l-13.47-4.904c-1.067-.389-1.772.2-1.575 1.321z" class="cls-3" data-name="Path 31" transform="translate(-374.74 -295.779)"/>
        <path id="Path_32" d="M196.916 61.018a3.078 3.078 0 1 0 0-6.156H167.39a9.834 9.834 0 0 0-6.1-12.947V1.672h-6.167v40.243a9.834 9.834 0 0 0-6.1 12.947H50.986a9.833 9.833 0 0 0-6.1-12.947V1.672h-6.172v40.243a9.833 9.833 0 0 0-6.1 12.947H3.084a3.078 3.078 0 1 0 0 6.156h.929v134.5h-.929a3.078 3.078 0 1 0 0 6.156h193.832a3.078 3.078 0 1 0 0-6.156h-.929v-134.5zm-40.848-12.774a3.69 3.69 0 0 1 5.656 4.108 3.721 3.721 0 0 1-7.059-.045 3.483 3.483 0 0 1-.144-1.036 3.8 3.8 0 0 1 1.547-3.027zM41.8 47.575a3.7 3.7 0 0 1 3.7 3.692c0 4.541-7.405 4.761-7.405 0a3.7 3.7 0 0 1 3.705-3.692zm148.02 147.941H10.18V61.018h179.64v134.5z" class="cls-3" data-name="Path 32"/>
    </g>
</svg>
